<?xml version="1.0" encoding="UTF-8" standalone="no"?>
<svg
   width="24px"
   height="24px"
   stroke-width="1.49"
   viewBox="0 0 24 24"
   fill="none"
   color="#9a9996"
   version="1.1"
   id="svg380"
   sodipodi:docname="power-eco-symbolic.svg"
   inkscape:version="1.2.1 (9c6d41e410, 2022-07-14)"
   xmlns:inkscape="http://www.inkscape.org/namespaces/inkscape"
   xmlns:sodipodi="http://sodipodi.sourceforge.net/DTD/sodipodi-0.dtd"
   xmlns="http://www.w3.org/2000/svg"
   xmlns:svg="http://www.w3.org/2000/svg">
  <defs
     id="defs384" />
  <sodipodi:namedview
     id="namedview382"
     pagecolor="#ffffff"
     bordercolor="#666666"
     borderopacity="1.0"
     inkscape:showpageshadow="2"
     inkscape:pageopacity="0.0"
     inkscape:pagecheckerboard="0"
     inkscape:deskcolor="#d1d1d1"
     showgrid="false"
     inkscape:zoom="11.313709"
     inkscape:cx="-21.478368"
     inkscape:cy="4.9939414"
     inkscape:window-width="1680"
     inkscape:window-height="973"
     inkscape:window-x="0"
     inkscape:window-y="0"
     inkscape:window-maximized="1"
     inkscape:current-layer="svg380" />
  <path
     style="color:#9a9996;fill:#000000;stroke-linecap:round;-inkscape-stroke:none;stroke:none;stroke-opacity:1;fill-opacity:1;opacity:1"
     d="M 6.6679687,2.2558594 A 0.745,0.745 0 0 0 5.921875,3 V 6.0878906 C 4.9961876,6.5308726 4.2558594,7.2968104 4.2558594,8.3847656 v 2.7695314 c 0,1.507196 1.2369447,2.744141 2.7441406,2.744141 H 9.2558594 V 21 A 0.745,0.745 0 0 0 10,21.744141 0.745,0.745 0 0 0 10.744141,21 V 13.898438 H 13 c 1.507196,0 2.744141,-1.236945 2.744141,-2.744141 V 8.3847656 c 0,-1.0879552 -0.740329,-1.853893 -1.666016,-2.296875 V 3 A 0.745,0.745 0 0 0 13.332031,2.2558594 0.745,0.745 0 0 0 12.587891,3 V 5.6386719 H 7.4121094 V 3 A 0.745,0.745 0 0 0 6.6679687,2.2558594 Z M 7,7.1289062 h 6 c 0.701941,0 1.255859,0.5539185 1.255859,1.2558594 v 2.7695314 c 0,0.701941 -0.553918,1.253906 -1.255859,1.253906 H 10 7 c -0.7019409,0 -1.2558594,-0.551965 -1.2558594,-1.253906 V 8.3847656 C 5.7441406,7.6828247 6.2980591,7.1289063 7,7.1289062 Z"
     id="path376" />
  <path
     style="color:#9a9996;fill:#000000;stroke-width:2.18139;stroke-linecap:round;stroke-linejoin:round;-inkscape-stroke:none;stroke:none;fill-opacity:1;opacity:1"
     d="m 21.179977,12.645916 -3.242579,0.311676 c -2.264531,0.218138 -3.935349,2.247625 -3.717241,4.51216 0.09378,0.97446 0.647665,1.743572 1.289596,2.393332 -0.430582,1.090791 -0.631929,1.947262 -0.631929,1.947262 -0.04292,0.391722 0.240152,0.743944 0.631929,0.78634 0.390723,0.04297 0.742493,-0.238448 0.786341,-0.629072 0,0 0.113008,-0.597844 0.414615,-1.406833 0.655156,0.306225 1.288327,0.696958 2.053062,0.623353 2.30018,-0.221434 4.030939,-2.274922 3.808741,-4.583644 l -0.291661,-3.048139 c -0.04532,-0.378523 -0.08547,-0.95242 -0.465655,-0.924224 -0.148525,-0.06304 -0.466286,0.0014 -0.635219,0.01779 z m -0.277363,1.458302 0.251628,2.630663 c 0.146813,1.525443 -0.994726,2.883404 -2.527724,3.030983 -0.464313,0.04469 -0.836979,-0.207114 -1.240987,-0.374583 0.237241,-0.421874 0.337021,-0.79815 0.711994,-1.226691 0.259279,-0.296794 0.22854,-0.747655 -0.06862,-1.006515 -0.296387,-0.257347 -0.74505,-0.226673 -1.003654,0.06862 -0.393562,0.449782 -0.479013,0.848064 -0.74345,1.298176 -0.265913,-0.371395 -0.596654,-0.707036 -0.643368,-1.192377 -0.144235,-1.497572 0.938654,-2.81238 2.436222,-2.956638 z"
     id="path342"
     sodipodi:nodetypes="cccccccccccccccscccccccc" />
</svg>
