<?xml version="1.0" encoding="UTF-8" standalone="no"?>
<svg
   height="48"
   width="48"
   version="1.1"
   id="svg8925"
   sodipodi:docname="view-agenda-symbolic.svg"
   inkscape:version="1.2.1 (9c6d41e410, 2022-07-14)"
   xmlns:inkscape="http://www.inkscape.org/namespaces/inkscape"
   xmlns:sodipodi="http://sodipodi.sourceforge.net/DTD/sodipodi-0.dtd"
   xmlns="http://www.w3.org/2000/svg"
   xmlns:svg="http://www.w3.org/2000/svg">
  <defs
     id="defs8929" />
  <sodipodi:namedview
     id="namedview8927"
     pagecolor="#ffffff"
     bordercolor="#666666"
     borderopacity="1.0"
     inkscape:showpageshadow="2"
     inkscape:pageopacity="0.0"
     inkscape:pagecheckerboard="0"
     inkscape:deskcolor="#d1d1d1"
     showgrid="false"
     inkscape:zoom="8.4166665"
     inkscape:cx="37.425743"
     inkscape:cy="27.742575"
     inkscape:window-width="1680"
     inkscape:window-height="973"
     inkscape:window-x="0"
     inkscape:window-y="0"
     inkscape:window-maximized="1"
     inkscape:current-layer="svg8925" />
  <path
     d="M 9,20.5 C 8.2,20.5 7.5,20.2 6.9,19.6 6.3,19 6,18.3 6,17.5 V 7 C 6,6.2 6.3,5.5 6.9,4.9 7.5,4.3 8.2,4 9,4 h 30 c 0.8,0 1.5,0.3 2.1,0.9 C 41.7,5.5 42,6.2 42,7 v 10.5 c 0,0.8 -0.3,1.5 -0.9,2.1 -0.6,0.6 -1.3,0.9 -2.1,0.9 z m 0,-3 H 39 V 7 H 9 Z M 9,44 C 8.2,44 7.5,43.7 6.9,43.1 6.3,42.5 6,41.8 6,41 V 30.5 C 6,29.7 6.3,29 6.9,28.4 7.5,27.8 8.2,27.5 9,27.5 h 30 c 0.8,0 1.5,0.3 2.1,0.9 0.6,0.6 0.9,1.3 0.9,2.1 V 41 c 0,0.8 -0.3,1.5 -0.9,2.1 C 40.5,43.7 39.8,44 39,44 Z M 9,41 H 39 V 30.5 H 9 Z M 23.838711,16.072488 9,17.5 Z M 9,30.5 V 41 Z"
     id="path8923"
     style="fill:#808080;fill-opacity:1;stroke:none"
     sodipodi:nodetypes="ssssssssssssscccccsssssssssssssccccccccccc" />
  <rect
     style="fill:#808080;fill-opacity:1;fill-rule:evenodd;stroke:none;stroke-width:0"
     id="rect9519"
     width="32.138489"
     height="13.417256"
     x="7.8315659"
     y="5.5312223" />
  <rect
     style="fill:#808080;fill-opacity:1;fill-rule:evenodd;stroke:none;stroke-width:0"
     id="rect9521"
     width="32.431068"
     height="13.667163"
     x="7.8567367"
     y="29.349159" />
</svg>
